<?xml version="1.0" ?><svg id="Layer_1" style="enable-background:new 0 0 64 64;" version="1.1" viewBox="0 0 64 64" xml:space="preserve" xmlns="http://www.w3.org/2000/svg" xmlns:xlink="http://www.w3.org/1999/xlink"><style type="text/css">
	.st0{fill: #dbe4e6;}
	.st1{fill-rule:evenodd;clip-rule:evenodd;fill:#517ebd;}
	.st2{fill-rule:evenodd;clip-rule:evenodd;fill:#040910;}
	.st3{fill-rule:evenodd;clip-rule:evenodd;fill:#040910;}
</style><g id="Reddit"><circle class="st0" cx="32" cy="32" r="30"/><path class="st1" d="M32,4C16.5,4,4,16.5,4,32c0,15.5,12.5,20,28,20c15.5,0,28-4.5,28-20h2c0,11.6-4.2,21.8-13.5,27.4   C43.7,62.3,38,64,32,64C14.3,64,0,49.7,0,32C0,20,6.7,9.5,16.5,4c4.6-2.5,9.9-2,15.5-2V4z"/><path class="st2" d="M16,4.3C23.3,0,32.1-1.1,40.3,1.1C48.5,3.3,55.5,8.7,59.7,16s5.4,16.1,3.2,24.3S55.3,55.5,48,59.7l-2-3.5   c6.4-3.7,11.1-9.8,13-17S60,24.4,56.2,18c-3.7-6.4-9.8-11.1-17-13C32.1,3,24.4,4,18,7.8L16,4.3z"/><path class="st3" d="M24.3,43.7c0.5-0.7,1.4-0.9,2.1-0.4c1.3,0.9,3.1,1.7,5.7,1.7c2.6,0,4.3-0.9,5.7-1.7c0.7-0.5,1.6-0.3,2.1,0.4   c0.5,0.7,0.3,1.6-0.4,2.1C37.7,46.9,35.4,48,32,48c-3.4,0-5.7-1.1-7.3-2.3C24,45.3,23.8,44.4,24.3,43.7z M39.5,39   c1.9,0,3.5-1.6,3.5-3.5S41.4,32,39.5,32c-1.9,0-3.5,1.6-3.5,3.5S37.6,39,39.5,39z M24.5,39c1.9,0,3.5-1.6,3.5-3.5S26.4,32,24.5,32   c-1.9,0-3.5,1.6-3.5,3.5S22.6,39,24.5,39z M34.4,12c-0.5-0.1-1.1,0-1.5,0.3s-0.7,0.8-0.8,1.3l-1.9,10.4c-5.2,0.3-9.9,2.1-13.2,4.7   c-0.7-0.5-1.6-0.7-2.5-0.7C12,28,10,30,10,32.5c0,1.6,0.9,3,2.1,3.8C12,36.9,12,37.4,12,38c0,7.7,9,14,20,14c11,0,20-6.3,20-14   c0-0.6,0-1.1-0.1-1.7c1.3-0.8,2.1-2.2,2.1-3.8c0-2.5-2-4.5-4.5-4.5c-0.9,0-1.8,0.3-2.5,0.7c-3.2-2.6-7.7-4.3-12.8-4.7l1.4-7.7   l4.6,0.9c0.5,1.6,2,2.7,3.8,2.7c2.2,0,4-1.8,4-4c0-2.2-1.8-4-4-4c-1.2,0-2.3,0.5-3,1.4L34.4,12z"/></g></svg>
