<svg xmlns="http://www.w3.org/2000/svg" viewBox="0 0 400 400">
      <circle cx="200" cy="200" r="200" fill="#1ed760" stroke="#000"></circle>
      <path
        fill="none"
        stroke="#000"
        strokeLinecap="round"
        strokeLinejoin="round"
        d="M263.64 387.21l34.35-16.84m32.67-23.86l28.47-30.27m22.1-35.57l13.98-39.35M157.48 9.827l-9.86 10.023m-1.74 11.228l5.85 10.786m12.22 8.877l16.82 5.817M278.39 382.27l33.51-19.19m30.93-26.07l25.96-32.16M186.14.48l-22.97 4.345m-15.55 8.294l-7.43 10.624m.65 11.267l7.96 10.305m13.86 7.97l17.83 4.615m19.51.678M292.39000000000004 376.34000000000003l32.33-21.48m28.92-28.15l23.18-33.87M172.41 1.92l-20.96 5.87m-13.18 9.293l-4.94 11.054m3.03 11.138l10 9.682m15.37 6.955l18.67 3.347m19.6-.681M305.5 369.46999999999997l30.85-23.68M158.95 4.31l-18.76 7.251m-10.68 10.12l-2.39 11.308m5.38 10.847l11.94 8.919m16.73 5.841l19.32 2.026M317.59 361.72l29.07-25.76M145.88 7.61l-16.37 8.471m-8.08 10.772l.18 11.385m7.68 10.393l13.77 8.026m17.92 4.637l19.79.668M133.33 11.808l-13.82 9.52m-5.4 11.24l2.74 11.284m9.91 9.782l15.46 7.01M161.17 64l20.07-.717M121.43 16.853L110.28 27.24m-2.67 11.522l5.29 11.004m12.03 9.019l17.01 5.883m19.79 2.011l20.16-2.115M110.28 22.699l-8.36 11.065m.09 11.611l7.77 10.551m14.05 8.113l18.39 4.653m20.44.613l20.05-3.511M100 29.289l-5.496 11.547m2.84 11.509l10.186 9.927m15.93 7.072l19.6 3.333m20.89-.823l19.75-4.893m16.3-8.382M90.68 36.561l-2.577 11.827m5.567 11.217l12.5 9.138m17.66 5.905l20.61 1.937m21.15-2.283l19.26-6.249M82.412 44.443l.367 11.904m8.242 10.737l14.699 8.193m19.21 4.625l21.43.476m21.2-3.754l18.58-7.563M75.277 52.86l3.308 11.776m10.836 10.075l16.749 7.101m20.59 3.242l22.04-1.034m21.04-5.221l17.72-8.824M69.34400000000001 61.732l6.215 11.445m13.327 9.235l18.644 5.871m21.76 1.771l22.44-2.578m20.68-6.671l16.7-10.02M71.453 46.834l-7.8 11.916m1.015 12.222l9.064 10.914m15.689 8.228l20.359 4.515m22.72.227l22.62-4.144m20.13-8.089l15.51-11.138M61.732 56.102l-4.566 12.346m4.13 12.043L73.121 90.68m17.9 7.061l21.879 3.049m23.46-1.379l22.59-5.714m19.37-9.461l14.18-12.17m7.5-13.487M53.342 66l-1.287 12.549m7.205 11.649l14.472 9.276m19.938 5.746l23.18 1.48m23.99-3.02l22.33-7.278m18.44-10.774l12.7-13.104M46.364 76.432l2.005 12.524M58.579 100l16.98 8.18m21.785 4.3l24.266-.17m24.27-4.7l21.87-8.808m17.32-12.016l11.11-13.931M40.867 87.297l5.275 12.271M59.26 109.8l19.325 6.92m23.425 2.73l25.11-1.88m24.33-6.39l21.18-10.31m16.04-13.172l9.41-14.643M36.901 98.49000000000001l8.497 11.79m15.898 9.23l21.483 5.5m24.831 1.05l25.72-3.64m24.15-8.08l20.3-11.74m14.61-14.244L200 73.121m0-14.542M34.507 109.9L46.142 121m18.526 8.03l23.435 3.94m26.007-.71l26.08-5.45m23.73-9.74l19.23-13.12m13.03-15.197l5.74-15.698M29.289 95.88L27.005 109m6.701 12.43l14.663 10.18m20.975 6.66l25.16 2.25m26.926-2.55l26.19-7.26m23.09-11.37l17.96-14.41M200 88.886l3.82-16.031M23.18 107.95l1.285 13.16m10.042 11.85l17.548 9.06m23.222 5.12l26.643.46m27.59-4.45l26.05-9.08m22.22-12.94l16.53-15.61m9.51-16.767l1.87-16.229M18.775 120.39l4.841 12.94m13.285 11.04l20.265 7.75m25.246 3.44l27.868-1.44m27.99-6.38l25.65-10.87m21.15-14.45l14.93-16.7m7.61-17.364l-.11-16.29M16.114 133.07l8.351 12.49m16.402 10l22.786 6.26m27.027 1.62l28.83-3.41m28.11-8.33l25.01-12.63m19.87-15.87l13.19-17.68m5.64-17.822l-2.09-16.213M15.224 145.88000000000002l11.781 11.79m19.359 8.76l25.089 4.59m28.547-.31l29.51-5.43M157.48 155l24.13-14.34m18.39-17.2l11.33-18.53m3.6-18.144l-4.04-16.001M16.114 158.69l15.097 10.85m22.131 7.32l27.149 2.78m29.789-2.34l29.91-7.5m27.56-12.2l23.01-15.98m16.74-18.42l9.35-19.25m1.54-18.322l-5.95-15.653M7.612 145.35l1 13.6m10.163 12.42l18.267 9.69m24.69 5.7l28.948.82m30.75-4.43l30.02-9.58m26.87-14.1L200 141.94m14.93-19.52l7.29-19.82m-.54-18.364l-7.82-15.175M4.787 158.81l4.747 13.4m13.646 11.6l21.263 8.32m27.01 3.9l30.466-1.24m31.41-6.6l29.84-11.66m25.94-15.93l20.13-18.98m12.98-20.49l5.15-20.26m-2.62-18.247l-9.6-14.57M3.843 172.41l8.446 12.94m17 10.53l24.053 6.75m29.07 1.95l31.698-3.4m31.77-8.79l29.37-13.72M200 160.98l18.39-20.32m10.9-21.32l2.96-20.538m-4.66-17.997L216.3 66.961M4.788 186.01l12.066 12.22m20.188 9.24l26.61 4.99m30.852-.13l32.615-5.63m31.83-11.01l28.61-15.73m23.33-19.36l16.48-21.53m8.71-22l.75-20.668m-6.67-17.603l-12.87-13.005M7.612 199.47l15.568 11.27m23.184 7.73l28.913 3.06m32.333-2.33l33.23-7.92m31.57-13.2L200 180.4m21.68-20.93l14.4-22.6m6.44-22.53l-1.47-20.643m-8.61-17.073l-14.33-12.06M12.29 212.67000000000002l18.922 10.07m25.954 6.03l30.938.98m33.506-4.62l33.51-10.23m31.02-15.38l26.3-19.56m19.81-22.36l12.19-23.53m4.11-22.89l-3.67-20.468m-10.47-16.41l-15.65-11.019M18.775 225.49l22.093 8.64m28.476 4.14l32.666-1.23m34.35-6.97l33.48-12.57M200 200l24.75-21.33M242.52 155l9.86-24.29m1.74-23.1l-5.85-20.134m-12.22-15.622l-16.82-9.89M.963 213.86l8.57 13.13m17.472 10.8l25.05 7.01m30.724 2.08l34.071-3.55m34.88-9.38l33.12-14.87m29.01-19.56l22.97-22.99m15.55-24.83l7.43-24.89m-.65-23.13l-7.96-19.66m-13.86-14.715l-17.83-8.687M3.843 227.59L16.113 240m20.788 9.47l27.767 5.17m32.676-.12l35.156-5.96m35.06-11.8L200 219.6m27.59-21.52l20.96-24.51m13.18-25.83l4.94-25.32m-3.03-23.009l-10-19.033m-15.37-13.699L219.6 59.26m-19.6-.681M8.612 241.05l15.853 11.43m23.904 7.92l30.216 3.16m34.315-2.45l35.9-8.42m34.9-14.24l31.45-19.37m25.9-23.39l18.76-25.89m10.68-26.65l2.39-25.58m-5.38-22.714l-11.94-18.271M238.83 64l-19.32-6.099m-19.51.678M15.222999999999999 254.12l19.284 10.21m26.789 6.16l32.374.98m35.62-4.88l36.3-10.93M200 239.02l30.16-21.52m23.96-25.11l16.37-27.11m8.08-27.31l-.18-25.66m-7.68-22.256l-13.77-17.377m-17.92-11.381l-19.79-4.741M23.616 266.67l22.526 8.75m29.416 4.21l34.221-1.33m36.58-7.39l36.35-13.45m33.59-19.01l28.58-23.55m21.79-26.71l13.82-28.16m5.4-27.77l-2.74-25.56m-9.91-21.646l-15.46-16.362m-18.95-10.1l-20.07-3.356M33.706 278.57000000000005l25.554 7.09m31.761 2.08l35.739-3.76m37.19-9.95L200 258.06m32.44-21.3l26.72-25.48m19.41-28.13l11.15-29.03m2.67-28.06l-5.29-25.27m-12.03-20.888l-17.01-15.234m-19.79-8.755l-20.16-1.958M12.289 267.85l12.176 12.36m20.933 9.51l28.334 5.21m33.798-.19l36.91-6.29m37.45-12.54l35.4-18.45m30.98-23.51l24.61-27.25m16.84-29.4l8.36-29.7m-.09-28.15l-7.77-24.821m-14.05-19.981l-18.39-14.004m-20.44-7.357l-20.05-.562M18.775 280.67l15.732 11.38M58.579 300l30.842 3.16m35.509-2.6l37.73-8.88M200 276.54l34.41-20.88m29.23-25.59l22.25-28.89M300 170.71l5.5-30.19m-2.84-28.04l-10.19-24.197m-15.93-18.939l-19.6-12.685m-20.89-5.921l-19.75.82M27.005 292.97l19.137 10.18m26.979 6.17l33.049.94m36.89-5.12l38.18-11.51m36.87-17.72l33.09-23.22m27.19-27.56l19.69-30.34m11.24-31.35l2.58-30.47m-5.57-27.75l-12.5-23.408m-17.66-17.773l-20.61-11.288m-21.15-4.461l-19.26 2.176M36.900999999999996 304.65l22.359 8.73m29.626 4.21l34.944-1.42m37.9-7.72L200 294.28m36.05-20.25l31.45-25.47m24.89-29.36l16.93-31.62m8.27-32.02l-.37-30.55m-8.24-27.269l-14.7-22.464m-19.21-16.492l-21.43-9.827m-21.2-2.99l-18.58 3.49M48.369 315.58000000000004l25.363 7.08m31.988 2.06l36.5-3.9m38.55-10.37l37.99-16.82m34.88-22.72l29.51-27.58m22.35-31l14.01-32.69m5.21-32.5l-3.3-30.42m-10.84-26.606l-16.75-21.371m-20.59-15.109l-22.04-8.318m-21.04-1.523l-17.72 4.751M61.29599999999999 325.67l28.125 5.21m34.039-.22l37.71-6.49M200 311.11l37.34-19.43m33.37-25.09l27.28-29.55m19.6-32.46l10.96-33.56m2.11-32.75l-6.22-30.09m-13.33-25.768l-18.64-20.14m-21.76-13.639l-22.44-6.772m-20.68-.074l-16.7 5.947M37.042 315.71l15.013 11.2m23.504 7.9l30.611 3.17m35.77-2.65l38.55-9.13m38.74-15.75l36.33-22m31.54-27.34l24.8-31.36m16.65-33.72l7.8-34.21m-1.02-32.79l-9.06-29.556m-15.69-24.763l-20.36-18.785M267.5 43.832l-22.62-5.207m-20.13 1.344l-15.51 7.066M46.364 326.71l18.304 10.04m26.353 6.17l32.809.97m37.15-5.19L200 326.88m38.27-18.43l34.97-24.47m29.42-29.46l22.06-32.99m13.55-34.77l4.56-34.64m-4.13-32.61l-11.82-28.83m-17.9-23.596L287.1 49.766m-23.46-10.49l-22.59-3.636m-19.37 2.716l-14.18 8.097M57.166 337.01l21.419 8.66m28.945 4.25l34.69-1.38m38.18-7.8l39.11-14.54m37.43-21.06l33.28-26.84m27-31.42l19.13-34.42m10.31-35.6l1.28-34.84m-7.2-32.22l-14.47-27.914m-19.94-22.281l-23.18-15.753m-23.99-8.841l-22.33-2.077m-18.44 4.03l-12.7 9.031M69.344 346.51l24.326 7.07m31.26 2.16l36.24-3.84M200 341.42l38.83-17.25m36.24-23.61l31.26-29.09m24.33-33.2l16-35.64m6.98-36.2l-2.01-34.82M341.42 100l-16.98-26.823m-21.78-20.832L278.39 38.24m-24.27-7.165l-21.87-.541m-17.32 5.272l-11.11 9.858M82.779 355.12l27.001 5.28m33.28-.08l37.43-6.4m39.11-13.18l38.18-19.92m34.69-26.08l28.95-31.18m21.41-34.79l12.73-36.64m3.57-36.57L353.86 121m-13.12-30.802l-19.32-25.562m-23.43-19.261l-25.11-12.39m-24.33-5.476l-21.18.954m-16.04 6.431l-9.41 10.571M97.344 362.76l29.416 3.32m34.97-2.45L200 354.6m39.02-15.9l37.15-22.53m32.81-28.43l26.35-33.1m18.31-36.17l9.32-37.41m.14-36.69l-8.5-34.09m-15.9-29.789l-21.48-24.144m-24.83-17.585l-25.72-10.624m-24.15-3.793l-20.3 2.396m-14.61 7.495L200 45.398m0 13.181M112.89999999999999 369.34999999999997l31.54 1.21m36.33-4.93l38.74-11.71m38.55-18.59l35.77-25.07m30.61-30.63l23.5-34.83m15.02-37.33l5.83-37.93m-3.3-36.58l-11.63-33.392m-18.53-28.596L311.9 48.388m-26.01-15.82l-26.08-8.824m-23.73-2.13l-19.23 3.769m-13.03 8.456l-5.74 11.626M82.412 361.72l19.598 8.65m27.28 4.46l33.37-1.05m37.34-7.49l38.83-14.39m37.71-21.24l34.04-27.5m28.12-32.67l20.43-36.36m11.58-38.25l2.29-38.21m-6.71-36.24l-14.66-32.474m-20.97-27.224L305.5 40.836m-26.93-13.981l-26.19-7.008m-23.09-.503l-17.96 5.061M200 33.706l-3.82 11.958M94.504 369.47l22.346 7.19m29.51 2.49l34.88-3.42m37.99-10.1l38.55-17.09m36.5-23.82l31.99-29.79m25.36-34.53l17.16-37.66m8.03-38.93l-1.29-38.25m-10.04-35.66l-17.55-31.351M324.72 52.86l-26.64-19.096m-27.59-12.087l-26.05-5.193m-22.22 1.07l-16.53 6.259m-9.51 10.026l-1.87 12.156M107.61 376.34l24.89 5.55m31.45.38l36.05-5.89m38.27-12.75l37.9-19.74m34.94-26.3l29.63-31.93m22.36-36.19l13.72-38.73m4.41-39.37l-4.85-38.04M363.1 98.49l-20.27-30.042m-25.24-24.005L289.72 27.24m-27.99-10.156l-25.65-3.397m-21.15 2.577L200 23.616m-7.61 10.62l.11 12.217m7.5 12.126M121.61 382.27l27.19 3.75m33.09-1.87l36.87-8.42m38.18-15.41l36.89-22.34m33.05-28.66l26.98-33.9M373 237.79l10.15-39.56m.74-39.54l-8.36-37.58m-16.4-33.813L336.35 58.75m-27.03-22.189l-28.83-15.233m-28.11-8.208l-25.01-1.637m-19.87 4.002l-13.19 8.328m-5.64 11.081l2.09 12.141M136.36 387.21000000000004l29.23 1.78m34.41-4.21l37.34-11m37.73-18.04l35.51-24.86M341.42 300l24.07-35.67m15.74-38.84l6.48-40.14m-2.93-39.47L373 109m-19.36-32.568l-25.09-26.884M300 29.289l-29.51-13.206m-27.97-6.26l-24.13.07M200 15.224l-11.33 9.181m-3.6 11.401l4.04 11.928M151.73000000000002 391.09l30.98-.3m35.4-6.64l37.45-13.59m36.91-20.64l33.8-27.26m28.33-32.94l20.93-37.24m12.18-39.81l2.76-40.46m-6.58-39.14l-15.1-35.941M346.66 66l-27.15-25.069m-29.79-18.232l-29.91-11.142m-27.56-4.33l-23.01 1.706m-16.74 6.552l-9.35 9.898m-1.54 11.581l5.95 11.58M167.56 393.90000000000003l32.44-2.51m36.05-9.12l37.19-16.19m35.74-23.16l31.76-29.54m25.55-34.81l17.6-38.57m8.5-40.53l-1-40.52m-10.16-38.56l-18.27-34.785m-24.69-29.503l-28.95-23.12m-30.75-16.129l-30.02-9.06m-26.87-2.44L200 8.612m-14.93 7.652l-7.29 10.477m.54 11.615l7.82 11.102M183.7 395.59l33.59-4.8m36.35-11.64l36.58-18.75m34.22-25.59l29.42-31.66m22.52-36.48l14.09-39.68m4.74-40.98l-4.74-40.33m-13.65-37.73l-21.26-33.409m-27.01-27.707l-30.47-21.056m-31.41-13.97l-29.84-6.982m-25.94-.605l-20.13 4.712m-12.98 8.621l-5.15 10.909m2.62 11.506l9.6 10.497M200 396.16l34.41-7.17m36.3-14.16l35.62-21.25m32.37-27.91l26.79-33.62m19.29-37.93l10.43-40.52m.95-41.19l-8.45-39.86M254.12 7.612l-29.37-4.925M200 3.843l-18.39 6.05m-10.9 9.451l-2.96 11.19m4.66 11.253l11.29 9.771m16.3 7.021M216.29999999999998 395.59l34.9-9.57m35.9-16.67l34.32-23.68m30.21-30.09l23.9-35.37m15.86-39.16l6.69-41.12m-2.87-41.12l-12.06-39.15M241.05 4.31L212.44 1.4m-23.33 2.825l-16.48 7.262m-8.71 10.131l-.75 11.32m6.67 10.859l12.87 8.932M232.44 393.90000000000003l35.06-12.01m35.16-19.13l32.67-26.01m27.77-32.1l20.79-36.93m12.27-40.13l2.88-41.45M227.59 1.92L200 .962m-21.68 4.39l-14.4 8.333m-6.44 10.658l1.47 11.295m8.61 10.328l14.33 7.987M248.27 391.09l34.88-14.43m34.07-21.54l30.72-28.21M373 292.97l17.47-38.25m8.57-40.86l-.96-41.52M213.86.48l-26.3.914m-19.81 5.83l-12.19 9.258m-4.11 11.025l3.67 11.116m10.47 9.665l15.65 6.946M136.36 387.21l-34.35-16.84m-32.666-23.86l-28.477-30.27m-22.092-35.57L4.787 241.32M242.52 9.827l9.86 10.023m1.74 11.228l-5.85 10.786m-12.22 8.877l-16.82 5.817M121.61000000000001 382.27l-33.507-19.19m-30.937-26.07l-25.955-32.16M213.859.48l22.97 4.345m15.55 8.294l7.43 10.624m-.65 11.267l-7.96 10.305m-13.86 7.97l-17.83 4.615m-19.51.678M107.61000000000001 376.34000000000003l-32.333-21.48m-28.913-28.15L23.18 292.84M227.59 1.92l20.96 5.87m13.18 9.293l4.94 11.054m-3.03 11.138l-10 9.682m-15.37 6.955l-18.67 3.347m-19.6-.681M94.504 369.46999999999997l-30.851-23.68M241.052 4.31l18.76 7.251m10.68 10.12l2.39 11.308m-5.38 10.847l-11.94 8.919m-16.73 5.841l-19.32 2.026m-19.51-2.039M82.412 361.72l-29.07-25.76M254.122 7.61l16.37 8.471m8.08 10.772l-.18 11.385m-7.68 10.393l-13.77 8.026m-17.92 4.637l-19.79.668m-19.23-3.385M266.67 11.808l13.82 9.52m5.4 11.24l-2.74 11.284m-9.91 9.782l-15.46 7.01M238.83 64l-20.07-.717M278.57 16.853l11.15 10.387m2.67 11.522l-5.29 11.004m-12.03 9.019l-17.01 5.883m-19.79 2.011l-20.16-2.115M289.72 22.699l8.36 11.065m-.09 11.611l-7.77 10.551m-14.05 8.113l-18.39 4.653m-20.44.613l-20.05-3.511M300 29.289l5.5 11.547m-2.84 11.509l-10.19 9.927m-15.93 7.072l-19.6 3.333m-20.89-.823l-19.75-4.893M309.32 36.561l2.58 11.827m-5.57 11.217l-12.5 9.138m-17.66 5.905l-20.61 1.937m-21.15-2.283l-19.26-6.249M317.59 44.443l-.37 11.904m-8.24 10.737l-14.7 8.193m-19.21 4.625l-21.43.476m-21.2-3.754l-18.58-7.563M324.71999999999997 52.86l-3.3 11.776m-10.84 10.075l-16.75 7.101m-20.59 3.242L251.2 84.02m-21.04-5.221l-17.72-8.824M330.66 61.732l-6.22 11.445m-13.33 9.235l-18.64 5.871m-21.76 1.771l-22.44-2.578m-20.68-6.671l-16.7-10.02M328.55 46.834l7.8 11.916m-1.02 12.222l-9.06 10.914m-15.69 8.228l-20.36 4.515m-22.72.227l-22.62-4.144m-20.13-8.089l-15.51-11.138M338.27 56.102l4.56 12.346m-4.13 12.043L326.88 90.68m-17.9 7.061l-21.88 3.049m-23.46-1.379l-22.59-5.714m-19.37-9.461l-14.18-12.17M346.66 66l1.28 12.549m-7.2 11.649l-14.47 9.276m-19.94 5.746l-23.18 1.48m-23.99-3.02l-22.33-7.278m-18.44-10.774l-12.7-13.104M353.64 76.432l-2.01 12.524M341.42 100l-16.98 8.18m-21.78 4.3l-24.27-.17m-24.27-4.7l-21.87-8.808m-17.32-12.016l-11.11-13.931M359.13 87.297l-5.27 12.271M340.74 109.8l-19.32 6.92m-23.43 2.73l-25.11-1.88m-24.33-6.39l-21.18-10.31m-16.04-13.172l-9.41-14.643M363.09999999999997 98.49000000000001l-8.5 11.79m-15.9 9.23l-21.48 5.5m-24.83 1.05l-25.72-3.64m-24.15-8.08l-20.3-11.74m-14.61-14.244L200 73.121m0-14.542M365.49 109.9L353.86 121m-18.53 8.03l-23.43 3.94m-26.01-.71l-26.08-5.45m-23.73-9.74l-19.23-13.12m-13.03-15.197l-5.74-15.698M370.71 95.88L373 109m-6.71 12.43l-14.66 10.18m-20.97 6.66l-25.16 2.25m-26.93-2.55l-26.19-7.26m-23.09-11.37l-17.96-14.41M200 88.886l-3.82-16.031M376.82 107.95l-1.29 13.16m-10.04 11.85l-17.55 9.06m-23.22 5.12l-26.64.46m-27.59-4.45l-26.05-9.08m-22.22-12.94l-16.53-15.61m-9.51-16.767l-1.87-16.229M381.23 120.39l-4.85 12.94m-13.28 11.04l-20.27 7.75m-25.24 3.44l-27.87-1.44m-27.99-6.38l-25.65-10.87m-21.15-14.45L200 105.72m-7.61-17.364l.11-16.29m7.5-13.487M383.89 133.07l-8.36 12.49m-16.4 10l-22.78 6.26m-27.03 1.62l-28.83-3.41m-28.11-8.33l-25.01-12.63M207.5 123.2l-13.19-17.68m-5.64-17.822l2.09-16.213M384.78 145.88000000000002L373 157.67m-19.36 8.76l-25.09 4.59m-28.55-.31l-29.51-5.43M242.52 155l-24.13-14.34M200 123.46l-11.33-18.53m-3.6-18.144l4.04-16.001M383.89000000000004 158.69l-15.1 10.85m-22.13 7.32l-27.15 2.78m-29.79-2.34l-29.91-7.5m-27.56-12.2l-23.01-15.98M192.5 123.2l-9.35-19.25m-1.54-18.322l5.95-15.653M392.39 145.35l-1 13.6m-10.16 12.42l-18.27 9.69m-24.69 5.7l-28.95.82m-30.75-4.43l-30.02-9.58m-26.87-14.1L200 141.94m-14.93-19.52l-7.29-19.82m.54-18.364l7.82-15.175M395.21 158.81l-4.74 13.4m-13.65 11.6l-21.26 8.32m-27.01 3.9l-30.47-1.24m-31.41-6.6l-29.84-11.66m-25.94-15.93l-20.13-18.98m-12.98-20.49l-5.15-20.26m2.62-18.247l9.6-14.57M396.16 172.41l-8.45 12.94m-17 10.53l-24.05 6.75m-29.07 1.95l-31.7-3.4m-31.77-8.79l-29.37-13.72M200 160.98l-18.39-20.32m-10.9-21.32l-2.96-20.538m4.66-17.997l11.29-13.844m16.3-8.382M395.21 186.01l-12.06 12.22m-20.19 9.24l-26.61 4.99m-30.85-.13l-32.62-5.63m-31.83-11.01l-28.61-15.73m-23.33-19.36l-16.48-21.53m-8.71-22l-.75-20.668m6.67-17.603l12.87-13.005M392.39000000000004 199.47l-15.57 11.27m-23.18 7.73l-28.92 3.06m-32.33-2.33l-33.23-7.92m-31.57-13.2L200 180.4m-21.68-20.93l-14.4-22.6m-6.44-22.53l1.47-20.643m8.61-17.073l14.33-12.06M387.71 212.67000000000002l-18.92 10.07m-25.96 6.03l-30.93.98m-33.51-4.62l-33.51-10.23m-31.02-15.38l-26.3-19.56m-19.81-22.36l-12.19-23.53m-4.11-22.89l3.67-20.468m10.47-16.41l15.65-11.019M381.22999999999996 225.49l-22.1 8.64m-28.47 4.14l-32.67-1.23m-34.35-6.97l-33.48-12.57M200 200l-24.75-21.33M157.48 155l-9.86-24.29m-1.74-23.1l5.85-20.134m12.22-15.622l16.82-9.89M399.04 213.86l-8.57 13.13M373 237.79l-25.06 7.01m-30.72 2.08l-34.07-3.55m-34.88-9.38l-33.12-14.87m-29.01-19.56l-22.97-22.99m-15.55-24.83l-7.43-24.89m.65-23.13l7.96-19.66m13.86-14.715l17.83-8.687M396.16 227.59L383.89 240m-20.79 9.47l-27.77 5.17m-32.67-.12l-35.16-5.96m-35.06-11.8L200 219.6m-27.59-21.52l-20.96-24.51m-13.18-25.83l-4.94-25.32m3.03-23.009l10-19.033m15.37-13.699l18.67-7.419m19.6-.681M391.39 241.05l-15.86 11.43m-23.9 7.92l-30.21 3.16m-34.32-2.45l-35.9-8.42m-34.9-14.24l-31.45-19.37m-25.9-23.39l-18.76-25.89m-10.68-26.65l-2.39-25.58m5.38-22.714l11.94-18.271M161.17 64l19.32-6.099m19.51.678M384.78 254.12l-19.29 10.21m-26.79 6.16l-32.37.98m-35.62-4.88l-36.3-10.93M200 239.02l-30.16-21.52m-23.96-25.11l-16.37-27.11m-8.08-27.31l.18-25.66m7.68-22.256l13.77-17.377m17.92-11.381l19.79-4.741M376.38000000000005 266.67l-22.52 8.75m-29.42 4.21l-34.22-1.33m-36.58-7.39l-36.35-13.45m-33.59-19.01l-28.58-23.55m-21.79-26.71l-13.82-28.16m-5.4-27.77l2.74-25.56m9.91-21.646l15.46-16.362m18.95-10.1l20.07-3.356M366.28999999999996 278.57000000000005l-25.55 7.09m-31.76 2.08l-35.74-3.76m-37.19-9.95L200 258.06m-32.44-21.3l-26.72-25.48m-19.41-28.13l-11.15-29.03m-2.67-28.06l5.29-25.27m12.03-20.888l17.01-15.234m19.79-8.755l20.16-1.958M387.71 267.85l-12.18 12.36m-20.93 9.51l-28.33 5.21m-33.8-.19l-36.91-6.29m-37.45-12.54l-35.4-18.45m-30.98-23.51l-24.61-27.25m-16.84-29.4l-8.36-29.7m.09-28.15l7.77-24.821m14.05-19.981l18.39-14.004m20.44-7.357l20.05-.562M381.23 280.67l-15.74 11.38M341.42 300l-30.84 3.16m-35.51-2.6l-37.73-8.88M200 276.54l-34.41-20.88m-29.23-25.59l-22.25-28.89M100 170.71l-5.496-30.19m2.84-28.04l10.186-24.197m15.93-18.939l19.6-12.685m20.89-5.921l19.75.82m16.3 7.021M373 292.97l-19.14 10.18m-26.98 6.17l-33.05.94m-36.89-5.12l-38.18-11.51m-36.87-17.72l-33.09-23.22m-27.19-27.56l-19.69-30.34m-11.24-31.35l-2.577-30.47m5.567-27.75l12.5-23.408m17.66-17.773l20.61-11.288m21.15-4.461l19.26 2.176M363.09999999999997 304.65l-22.36 8.73m-29.63 4.21l-34.94-1.42m-37.9-7.72L200 294.28m-36.05-20.25l-31.45-25.47m-24.89-29.36l-16.93-31.62m-8.268-32.02l.367-30.55m8.242-27.269l14.699-22.464m19.21-16.492l21.43-9.827m21.2-2.99l18.58 3.49M351.63 315.58000000000004l-25.36 7.08m-31.99 2.06l-36.5-3.9m-38.55-10.37l-37.99-16.82m-34.88-22.72l-29.51-27.58m-22.346-31l-14.013-32.69m-5.214-32.5l3.308-30.42m10.836-26.606l16.749-21.371m20.59-15.109l22.04-8.318m21.04-1.523l17.72 4.751M338.7 325.67l-28.12 5.21m-34.04-.22l-37.71-6.49M200 311.11l-37.34-19.43m-33.37-25.09l-27.28-29.55m-19.598-32.46l-10.959-33.56m-2.109-32.75l6.215-30.09m13.327-25.768l18.644-20.14m21.76-13.639l22.44-6.772m20.68-.074l16.7 5.947M362.96 315.71l-15.02 11.2m-23.5 7.9l-30.61 3.17m-35.77-2.65l-38.55-9.13m-38.74-15.75l-36.33-22m-31.54-27.34l-24.797-31.36m-16.65-33.72l-7.8-34.21m1.015-32.79l9.064-29.556m15.689-24.763l20.359-18.785m22.72-12.094l22.62-5.207m20.13 1.344l15.51 7.066M353.64 326.71l-18.31 10.04m-26.35 6.17l-32.81.97m-37.15-5.19L200 326.88m-38.27-18.43l-34.97-24.47m-29.416-29.46l-22.067-32.99m-13.545-34.77l-4.566-34.64m4.13-32.61l11.825-28.83m17.9-23.596L112.9 49.766m23.46-10.49l22.59-3.636m19.37 2.716l14.18 8.097m7.5 12.126M342.83 337.01l-21.41 8.66m-28.95 4.25l-34.69-1.38m-38.18-7.8l-39.11-14.54m-37.43-21.06l-33.28-26.84m-27.001-31.42l-19.126-34.42m-10.311-35.6l-1.287-34.84m7.205-32.22l14.472-27.914M93.67 59.605l23.18-15.753m23.99-8.841l22.33-2.077m18.44 4.03l12.7 9.031M330.66 346.51l-24.33 7.07m-31.26 2.16l-36.24-3.84M200 341.42l-38.83-17.25m-36.24-23.61l-31.26-29.09m-24.326-33.2l-16.002-35.64m-6.978-36.2l2.005-34.82M58.579 100l16.98-26.823m21.785-20.832L121.61 38.24m24.27-7.165l21.87-.541m17.32 5.272l11.11 9.858M317.22 355.12l-27 5.28m-33.28-.08l-37.43-6.4m-39.11-13.18l-38.18-19.92m-34.69-26.08l-28.945-31.18m-21.419-34.79l-12.723-36.64m-3.576-36.57L46.142 121M59.26 90.198l19.325-25.562m23.425-19.261l25.11-12.39m24.33-5.476l21.18.954m16.04 6.431l9.41 10.571M302.66 362.76l-29.42 3.32m-34.97-2.45L200 354.6m-39.02-15.9l-37.15-22.53m-32.809-28.43l-26.353-33.1m-18.304-36.17l-9.322-37.41m-.141-36.69l8.497-34.09m15.898-29.789l21.483-24.144m24.831-17.585l25.72-10.624m24.15-3.793l20.3 2.396m14.61 7.495L200 45.398m0 13.181M287.09999999999997 369.34999999999997l-31.54 1.21m-36.33-4.93l-38.74-11.71m-38.55-18.59l-35.77-25.07m-30.611-30.63L52.055 244.8m-15.013-37.33l-5.831-37.93m3.296-36.58l11.635-33.392m18.526-28.596l23.435-22.584m26.007-15.82l26.08-8.824m23.73-2.13l19.23 3.769m13.03 8.456l5.74 11.626M317.59 361.72l-19.6 8.65m-27.28 4.46l-33.37-1.05M200 366.29l-38.83-14.39m-37.71-21.24l-34.039-27.5m-28.125-32.67l-20.429-36.36m-11.578-38.25l-2.284-38.21m6.701-36.24l14.663-32.474m20.975-27.224l25.16-20.896m26.926-13.981l26.19-7.008m23.09-.503l17.96 5.061M200 33.706l3.82 11.958M305.5 369.47l-22.35 7.19m-29.51 2.49l-34.88-3.42m-37.99-10.1l-38.55-17.09m-36.5-23.82l-31.988-29.79M48.369 260.4l-17.158-37.66m-8.031-38.93l1.285-38.25m10.042-35.66l17.548-31.351M75.277 52.86l26.643-19.096m27.59-12.087l26.05-5.193m22.22 1.07l16.53 6.259m9.51 10.026l1.87 12.156M292.39 376.34l-24.89 5.55m-31.45.38L200 376.38m-38.27-12.75l-37.9-19.74m-34.944-26.3L59.26 285.66m-22.359-36.19L23.18 210.74m-4.405-39.37l4.841-38.04m13.285-34.84l20.265-30.042m25.246-24.005L110.28 27.24m27.99-10.156l25.65-3.397m21.15 2.577L200 23.616m7.61 10.62l-.11 12.217M278.39 382.27l-27.19 3.75m-33.09-1.87l-36.87-8.42m-38.18-15.41l-36.89-22.34m-33.049-28.66l-26.979-33.9m-19.137-37.63l-10.152-39.56m-.739-39.54l8.351-37.58m16.402-33.813L63.653 58.75M90.68 36.561l28.83-15.233m28.11-8.208l25.01-1.637m19.87 4.002l13.19 8.328m5.64 11.081l-2.09 12.141M263.64 387.21000000000004l-29.23 1.78M200 384.78l-37.34-11m-37.73-18.04l-35.509-24.86M58.579 300l-24.072-35.67m-15.732-38.84l-6.486-40.14m2.935-39.47L27.005 109m19.359-32.568l25.089-26.884M100 29.289l29.51-13.206m27.97-6.26l24.13.07M200 15.224l11.33 9.181m3.6 11.401l-4.04 11.928M248.26999999999998 391.09l-30.98-.3m-35.4-6.64l-37.45-13.59m-36.91-20.64l-33.798-27.26m-28.334-32.94l-20.933-37.24m-12.176-39.81l-2.756-40.46m6.581-39.14l15.097-35.941M53.342 66l27.149-25.069m29.789-18.232l29.91-11.142m27.56-4.33l23.01 1.706m16.74 6.552l9.35 9.898m1.54 11.581l-5.95 11.58M232.44000000000003 393.90000000000003L200 391.39m-36.05-9.12l-37.19-16.19m-35.739-23.16L59.26 313.38m-25.554-34.81L16.114 240m-8.502-40.53l1-40.52m10.163-38.56l18.267-34.785m24.69-29.503l28.948-23.12m30.75-16.129l30.02-9.06m26.87-2.44L200 8.612m14.93 7.652l7.29 10.477m-.54 11.615l-7.82 11.102M216.3 395.59l-33.59-4.8m-36.35-11.64l-36.58-18.75m-34.221-25.59l-29.417-31.66m-22.526-36.48L9.534 226.99m-4.746-40.98l4.746-40.33m13.646-37.73l21.263-33.409m27.01-27.707l30.467-21.056m31.41-13.97l29.84-6.982m25.94-.605l20.13 4.712m12.98 8.621l5.15 10.909m-2.62 11.506l-9.6 10.497M200 396.16l-34.41-7.17m-36.3-14.16l-35.62-21.25m-32.374-27.91l-26.789-33.62m-19.283-37.93L4.788 213.6m-.945-41.19l8.446-39.86M145.879 7.612l29.37-4.925m24.75 1.156l18.39 6.05m10.9 9.451l2.96 11.19m-4.66 11.253l-11.29 9.771m-16.3 7.021M183.70000000000002 395.59l-34.9-9.57m-35.9-16.67l-34.315-23.68m-30.216-30.09l-23.904-35.37M8.612 241.05l-6.69-41.12m2.866-41.12l12.066-39.15m142.1-115.35l28.61-2.91m23.33 2.825l16.48 7.262m8.71 10.131l.75 11.32m-6.67 10.859l-12.87 8.932m-17.29 5.854M167.56 393.90000000000003l-35.06-12.01m-35.156-19.13l-32.676-26.01m-27.767-32.1l-20.787-36.93M3.843 227.59l-2.88-41.45M172.413 1.92l27.59-.958m21.68 4.39l14.4 8.333m6.44 10.658l-1.47 11.295m-8.61 10.328l-14.33 7.987m-18.11 4.624M151.73 391.09l-34.88-14.43m-34.071-21.54l-30.724-28.21m-25.05-33.94L9.533 254.72m-8.57-40.86l.959-41.52M186.142.48l26.3.914m19.81 5.83l12.19 9.258m4.11 11.025l-3.67 11.116m-10.47 9.665l-15.65 6.946m-18.76 3.343"
      ></path>
    </svg>