<?xml version="1.0" standalone="no"?>
<!DOCTYPE svg PUBLIC "-//W3C//DTD SVG 20010904//EN"
 "http://www.w3.org/TR/2001/REC-SVG-20010904/DTD/svg10.dtd">
<svg version="1.0" xmlns="http://www.w3.org/2000/svg"
 width="310.000000pt" height="310.000000pt" viewBox="0 0 310.000000 310.000000"
 preserveAspectRatio="xMidYMid meet">
<metadata>
Created by potrace 1.14, written by Peter Selinger 2001-2017
</metadata>
<g transform="translate(0.000000,310.000000) scale(0.100000,-0.100000)"
fill="#000000" stroke="none">
<path d="M1815 2730 c-84 -13 -144 -68 -203 -185 -58 -114 -88 -223 -97 -350
-1 -26 -8 -51 -14 -55 -7 -4 -33 -8 -59 -9 -41 -1 -94 -8 -197 -26 -16 -3 -61
-15 -100 -26 -38 -12 -77 -22 -85 -24 -25 -5 -215 -90 -240 -108 -22 -15 -25
-15 -49 3 -47 33 -141 58 -203 55 -190 -10 -320 -183 -285 -379 11 -59 37
-107 87 -156 25 -25 44 -47 43 -50 -13 -45 -18 -172 -8 -240 32 -236 175 -438
404 -572 98 -58 226 -110 351 -143 11 -3 116 -26 137 -29 123 -24 384 -27 508
-7 221 36 461 123 572 207 17 13 35 24 38 24 4 0 12 6 20 13 7 6 36 32 65 57
107 93 193 235 231 381 17 66 20 101 16 183 -3 56 -7 111 -10 123 -4 15 5 33
33 63 64 70 84 124 83 227 -3 236 -274 377 -481 251 l-32 -20 -93 45 c-185 91
-381 141 -592 151 l-30 2 3 73 c3 90 47 232 97 316 56 94 104 120 147 81 145
-130 233 -169 405 -180 40 -2 54 -12 93 -66 3 -4 25 -17 49 -30 37 -18 56 -21
103 -17 70 6 114 30 150 82 72 103 33 248 -80 296 -113 49 -228 1 -273 -113
-19 -48 -26 -50 -114 -35 -73 12 -140 47 -225 116 -85 69 -109 79 -165 71z"/>
</g>
</svg>
